<svg xmlns="http://www.w3.org/2000/svg" width="271.554" height="130.194" viewBox="0 0 271.554 130.194">
  <g id="Group_127" data-name="Group 127" transform="translate(-1051 -3466)">
    <g id="Group_126" data-name="Group 126" transform="translate(1051 3466)">
      <g id="Layer_1" data-name="Layer 1" transform="translate(19.344 0)">
        <path id="Path_87" data-name="Path 87" d="M38.615,84.154V23.938H60.263V49.6L74.276,23.938h25L80.737,53.593l21.144,30.561H75.156L60.263,58.982V84.154Z" transform="translate(-38.615 -22.581)" fill="#fff"/>
        <g id="Group_122" data-name="Group 122" transform="translate(70.742 1.299)">
          <path id="Path_88" data-name="Path 88" d="M156.716,84.2h-27.4V23.863h27.4Zm-24.165-3.238H153.48V27.1H132.552Z" transform="translate(-129.314 -23.863)" fill="#fff"/>
        </g>
        <path id="Path_89" data-name="Path 89" d="M179.51,78.63l7.049-16.864a45.8,45.8,0,0,0,8.453,4.751,18.577,18.577,0,0,0,6.943,1.5,6.5,6.5,0,0,0,3.566-.843,2.6,2.6,0,0,0,1.3-2.283q0-2.508-6.5-3.825-2.1-.453-3.272-.7-6.882-1.645-10.53-5.84a15.347,15.347,0,0,1-3.65-10.448,19.843,19.843,0,0,1,7.09-15.794q7.09-6.086,18.586-6.087a40.435,40.435,0,0,1,10.4,1.357,48.827,48.827,0,0,1,10.32,4.113l-6.713,15.754a27.682,27.682,0,0,0-6.4-3.517,17.57,17.57,0,0,0-6.23-1.214,6.931,6.931,0,0,0-3.566.761A2.361,2.361,0,0,0,205.1,41.57q0,2.552,9.188,4.484,1.468.329,2.266.493a17.581,17.581,0,0,1,9.985,5.717,15.646,15.646,0,0,1,3.649,10.448,20.549,20.549,0,0,1-7.363,16.329q-7.362,6.334-19.152,6.334a44.807,44.807,0,0,1-12.082-1.686A55.343,55.343,0,0,1,179.51,78.63Z" transform="translate(-69.617 -22.198)" fill="#fff"/>
        <rect id="Rectangle_112" data-name="Rectangle 112" width="11.581" height="6.022" transform="translate(53.311 32.442)" fill="#e50019"/>
        <rect id="Rectangle_113" data-name="Rectangle 113" width="8.073" height="31.824" transform="matrix(0.762, -0.647, 0.647, 0.762, 82.34, 22.449)" fill="#e50019"/>
        <rect id="Rectangle_114" data-name="Rectangle 114" width="11.581" height="6.022" transform="translate(163.286 32.442)" fill="#e50019"/>
        <path id="Path_90" data-name="Path 90" d="M319.883,22.233H259.55v18.4h16.607V84.815h27.4V40.638h16.324Z" transform="translate(-87.229 -22.206)" fill="#fff"/>
      </g>
      <g id="GUIDES" transform="translate(0 71.709)">
        <g id="Group_123" data-name="Group 123" transform="translate(79.885)">
          <path id="Path_91" data-name="Path 91" d="M124.226,114.783v17.476h9.607v4.94h-17.6V114.783Z" transform="translate(-116.236 -114.279)" fill="#e50019"/>
          <path id="Path_92" data-name="Path 92" d="M172.189,134.234a23.84,23.84,0,0,1-24.294,0c-3.279-2.285-4.849-5.411-4.849-8.368a10.324,10.324,0,0,1,4.849-8.4,23.835,23.835,0,0,1,24.294,0,10.324,10.324,0,0,1,4.851,8.4C177.039,128.823,175.468,131.949,172.189,134.234Zm-18.381-12.67a5.416,5.416,0,0,0-2.448,4.4,5.17,5.17,0,0,0,2.448,4.167,10.675,10.675,0,0,0,6.234,1.781,10.311,10.311,0,0,0,6.189-1.747,5.524,5.524,0,0,0,2.494-4.3,5.42,5.42,0,0,0-2.494-4.3,11.325,11.325,0,0,0-6.189-1.781A10.891,10.891,0,0,0,153.807,121.565Z" transform="translate(-122.135 -114.137)" fill="#e50019"/>
          <path id="Path_93" data-name="Path 93" d="M215.906,136.491a25.253,25.253,0,0,1-6.927,1.108,20.472,20.472,0,0,1-11.917-3.36,10.435,10.435,0,0,1-4.664-8.167,10.647,10.647,0,0,1,4.664-8.267,19.8,19.8,0,0,1,11.639-3.5,25.409,25.409,0,0,1,7.2,1.143v6.956a10.231,10.231,0,0,0-6.974-2.452,9.661,9.661,0,0,0-5.542,1.478,5.579,5.579,0,0,0-2.678,4.6,5.489,5.489,0,0,0,2.494,4.369,10.637,10.637,0,0,0,5.726,1.546,10.914,10.914,0,0,0,6.974-2.352Z" transform="translate(-132.994 -114.175)" fill="#e50019"/>
          <path id="Path_94" data-name="Path 94" d="M236.972,124.025l9.791-9.242h9.884L244.407,125.4l13.348,11.8H247.409l-10.437-9.712V137.2h-7.991V114.783h7.991Z" transform="translate(-141.044 -114.279)" fill="#e50019"/>
        </g>
        <rect id="Rectangle_115" data-name="Rectangle 115" width="40.499" height="6.022" transform="translate(26.124 9.857)" fill="#e50019"/>
        <rect id="Rectangle_116" data-name="Rectangle 116" width="40.499" height="6.022" transform="translate(204.931 9.857)" fill="#e50019"/>
        <g id="Group_125" data-name="Group 125" transform="translate(0 38.367)">
          <g id="Group_124" data-name="Group 124">
            <path id="Path_95" data-name="Path 95" d="M18.753,170.98l6.052-5.709h6.11l-7.566,6.56,8.25,7.287H25.2l-6.452-6v6H13.814V165.271h4.939Z" transform="translate(-13.814 -163.756)" fill="#e50019"/>
            <path id="Path_96" data-name="Path 96" d="M50.907,176.3H41.4a2.017,2.017,0,0,0,.8,1.557,3.177,3.177,0,0,0,1.884.457,4.772,4.772,0,0,0,1.484-.249,1.9,1.9,0,0,0,.8-.623h4.368a4.1,4.1,0,0,1-1.542,1.91,8.579,8.579,0,0,1-5.2,1.288,9,9,0,0,1-5.281-1.413,4.268,4.268,0,0,1,.028-7.1,8.881,8.881,0,0,1,5.224-1.349,8.765,8.765,0,0,1,4.911,1.265,4.468,4.468,0,0,1,2.026,3.9Zm-4.2-1.91a2.137,2.137,0,0,0-.743-1,3.33,3.33,0,0,0-1.884-.5,3.03,3.03,0,0,0-1.856.5,1.781,1.781,0,0,0-.685,1Z" transform="translate(-18.879 -164.968)" fill="#fff"/>
            <path id="Path_97" data-name="Path 97" d="M71.012,176.3H61.505a2.019,2.019,0,0,0,.8,1.557,3.177,3.177,0,0,0,1.884.457,4.772,4.772,0,0,0,1.484-.249,1.9,1.9,0,0,0,.8-.623h4.368a4.1,4.1,0,0,1-1.541,1.91,8.582,8.582,0,0,1-5.2,1.288,9,9,0,0,1-5.281-1.413,4.268,4.268,0,0,1,.028-7.1,8.886,8.886,0,0,1,5.225-1.349,8.763,8.763,0,0,1,4.91,1.265,4.467,4.467,0,0,1,2.027,3.9Zm-4.2-1.91a2.14,2.14,0,0,0-.742-1,3.333,3.333,0,0,0-1.884-.5,3.025,3.025,0,0,0-1.856.5,1.773,1.773,0,0,0-.685,1Z" transform="translate(-23.303 -164.968)" fill="#fff"/>
            <path id="Path_98" data-name="Path 98" d="M82.362,185.074H77.794V171.038h4.568v1.019a5.571,5.571,0,0,1,3.911-1.329,7.692,7.692,0,0,1,4.539,1.349,4.3,4.3,0,0,1-.115,7.266,7.532,7.532,0,0,1-4.368,1.288,6.668,6.668,0,0,1-3.968-1.2Zm.742-10.9a1.722,1.722,0,0,0,0,3.011,3.547,3.547,0,0,0,2.055.622,3.333,3.333,0,0,0,2.027-.622,1.982,1.982,0,0,0,.885-1.475,2.009,2.009,0,0,0-.885-1.536,3.328,3.328,0,0,0-2.027-.623A3.541,3.541,0,0,0,83.1,174.174Z" transform="translate(-27.892 -164.956)" fill="#fff"/>
            <path id="Path_99" data-name="Path 99" d="M115.537,165.271v13.847H110.6V165.271Z" transform="translate(-35.11 -163.756)" fill="#e50019"/>
            <path id="Path_100" data-name="Path 100" d="M126.255,172.986v6.56h-4.567v-6.56h-1.456v-2.72h1.456v-3.051h4.567v3.051h2.6v2.72Z" transform="translate(-37.23 -164.183)" fill="#fff"/>
            <path id="Path_101" data-name="Path 101" d="M143.978,174.878a7.994,7.994,0,0,0,4.368,1.412,3.1,3.1,0,0,0,1.912-.477,1.1,1.1,0,0,0,.485-.872.992.992,0,0,0-.542-.831,8.429,8.429,0,0,0-2.455-.727l-1.284-.291a7.121,7.121,0,0,1-2.741-1.121,2.9,2.9,0,0,1-1.086-2.45,4,4,0,0,1,1.742-3.342,8.254,8.254,0,0,1,4.882-1.308,17.465,17.465,0,0,1,5.882,1.122l-1.97,2.8a6.265,6.265,0,0,0-3.255-.935,2.977,2.977,0,0,0-1.627.416.946.946,0,0,0-.485.748.765.765,0,0,0,.257.622,3.546,3.546,0,0,0,1.656.623l1.513.331a8.388,8.388,0,0,1,3.454,1.37,2.809,2.809,0,0,1,1.228,2.471,4.058,4.058,0,0,1-1.8,3.487,9.233,9.233,0,0,1-5.624,1.413,13.68,13.68,0,0,1-3.739-.457,15.658,15.658,0,0,1-2.884-1.1Z" transform="translate(-41.99 -163.668)" fill="#e50019"/>
            <path id="Path_102" data-name="Path 102" d="M171.5,171.038h4.567v9.281H171.5V179.3a5.669,5.669,0,0,1-3.968,1.329,7.389,7.389,0,0,1-4.6-1.474,4.1,4.1,0,0,1-1.827-3.405,4.528,4.528,0,0,1,1.969-3.717,8.049,8.049,0,0,1,4.6-1.307,5.972,5.972,0,0,1,3.826,1.2Zm-4.8,3.114a1.947,1.947,0,0,0-.914,1.515,1.913,1.913,0,0,0,.885,1.516,3.9,3.9,0,0,0,2.055.622,3.54,3.54,0,0,0,2.055-.643,1.737,1.737,0,0,0-.029-3.011,3.71,3.71,0,0,0-4.053,0Z" transform="translate(-46.223 -164.956)" fill="#fff"/>
            <path id="Path_103" data-name="Path 103" d="M188.948,172.131v6.56h-4.567v-6.56h-1.6V169.41h1.6v-1.557a3.866,3.866,0,0,1,1.171-3.051,6.309,6.309,0,0,1,4.425-1.474,7.715,7.715,0,0,1,2.2.312V166.5a3.715,3.715,0,0,0-1.427-.311,2,2,0,0,0-1.285.353,1.951,1.951,0,0,0-.515,1.557v1.307h3.2v2.721Z" transform="translate(-50.993 -163.328)" fill="#fff"/>
            <path id="Path_104" data-name="Path 104" d="M209.514,176.3h-9.507a2.019,2.019,0,0,0,.8,1.557,3.174,3.174,0,0,0,1.884.457,4.776,4.776,0,0,0,1.485-.249,1.9,1.9,0,0,0,.8-.623h4.368a4.091,4.091,0,0,1-1.541,1.91,8.582,8.582,0,0,1-5.2,1.288,9,9,0,0,1-5.28-1.413,4.268,4.268,0,0,1,.027-7.1,8.888,8.888,0,0,1,5.226-1.349,8.762,8.762,0,0,1,4.909,1.265,4.466,4.466,0,0,1,2.028,3.9Zm-4.2-1.91a2.147,2.147,0,0,0-.742-1,3.334,3.334,0,0,0-1.884-.5,3.023,3.023,0,0,0-1.855.5,1.778,1.778,0,0,0-.686,1Z" transform="translate(-53.778 -164.968)" fill="#fff"/>
            <path id="Path_105" data-name="Path 105" d="M232.146,172.986v6.56h-4.567v-6.56h-1.456v-2.72h1.456v-3.051h4.567v3.051h2.6v2.72Z" transform="translate(-60.529 -164.183)" fill="#fff"/>
            <path id="Path_106" data-name="Path 106" d="M251.18,179.094a11.32,11.32,0,0,1-11.391,0,3.946,3.946,0,0,1,0-6.83,9.778,9.778,0,0,1,5.682-1.536,9.891,9.891,0,0,1,5.709,1.536,3.945,3.945,0,0,1,0,6.83Zm-7.737-4.941a1.706,1.706,0,0,0,0,2.99,3.659,3.659,0,0,0,4.083,0,1.846,1.846,0,0,0,.885-1.475,2.006,2.006,0,0,0-.885-1.515,3.762,3.762,0,0,0-4.083,0Z" transform="translate(-63.103 -164.956)" fill="#fff"/>
            <path id="Path_107" data-name="Path 107" d="M278.651,168.322v10.8h-4.938v-10.8h-4.054v-3.051h13.046v3.051Z" transform="translate(-70.109 -163.756)" fill="#e50019"/>
            <path id="Path_108" data-name="Path 108" d="M300.194,176.249h-9.507a2.019,2.019,0,0,0,.8,1.557,3.176,3.176,0,0,0,1.884.457,4.773,4.773,0,0,0,1.485-.249,1.9,1.9,0,0,0,.8-.623h4.368a4.088,4.088,0,0,1-1.54,1.91,8.592,8.592,0,0,1-5.2,1.288,9,9,0,0,1-5.28-1.413,4.268,4.268,0,0,1,.028-7.1,8.883,8.883,0,0,1,5.225-1.349,8.763,8.763,0,0,1,4.909,1.266,4.466,4.466,0,0,1,2.028,3.9Zm-4.2-1.91a2.154,2.154,0,0,0-.743-1,3.334,3.334,0,0,0-1.884-.5,3.022,3.022,0,0,0-1.855.5,1.778,1.778,0,0,0-.686,1Z" transform="translate(-73.731 -164.956)" fill="#fff"/>
            <path id="Path_109" data-name="Path 109" d="M316.209,171.038h4.567v9.281h-4.567V179.3a5.669,5.669,0,0,1-3.969,1.329,7.387,7.387,0,0,1-4.6-1.474,4.1,4.1,0,0,1-1.827-3.405,4.527,4.527,0,0,1,1.97-3.717,8.045,8.045,0,0,1,4.6-1.307,5.971,5.971,0,0,1,3.826,1.2Zm-4.8,3.114a1.945,1.945,0,0,0-.913,1.515,1.912,1.912,0,0,0,.884,1.516,3.9,3.9,0,0,0,2.055.622,3.54,3.54,0,0,0,2.056-.643,1.737,1.737,0,0,0-.029-3.011,3.711,3.711,0,0,0-4.053,0Z" transform="translate(-78.065 -164.956)" fill="#fff"/>
            <path id="Path_110" data-name="Path 110" d="M338.36,180.117a8.951,8.951,0,0,1-3.17.52,8.584,8.584,0,0,1-5.025-1.413,4.322,4.322,0,0,1-1.969-3.467,4.5,4.5,0,0,1,2.056-3.592,9.06,9.06,0,0,1,5.138-1.412,8.634,8.634,0,0,1,2.969.519v2.782a5.108,5.108,0,0,0-2.37-.6,3.625,3.625,0,0,0-2.227.643,1.98,1.98,0,0,0-.885,1.6,2.051,2.051,0,0,0,.8,1.558,3.722,3.722,0,0,0,2.341.705,4.328,4.328,0,0,0,2.341-.622Z" transform="translate(-82.989 -164.962)" fill="#fff"/>
            <path id="Path_111" data-name="Path 111" d="M344.553,163.621h4.567v7.017a5.382,5.382,0,0,1,1.428-.913,6.761,6.761,0,0,1,2.627-.457,6.279,6.279,0,0,1,3.768,1,2.734,2.734,0,0,1,1.2,2.594v5.9h-4.568v-4.691a2.2,2.2,0,0,0-.571-1.807,2.24,2.24,0,0,0-1.455-.393,3.1,3.1,0,0,0-1.655.393,1.775,1.775,0,0,0-.772,1.515v4.983h-4.567Z" transform="translate(-86.588 -163.392)" fill="#fff"/>
            <path id="Path_112" data-name="Path 112" d="M13.814,187.62v-2.813H31.768v2.813Z" transform="translate(-13.814 -168.054)" fill="#e50019"/>
          </g>
          <path id="Path_113" data-name="Path 113" d="M117.138,184.807v2.814h-9.4v-2.814" transform="translate(-34.481 -168.054)" fill="#e50019"/>
          <path id="Path_114" data-name="Path 114" d="M156.371,184.807v2.814H141.045v-2.814" transform="translate(-41.809 -168.054)" fill="#e50019"/>
          <path id="Path_115" data-name="Path 115" d="M283.225,184.807v2.814H268.731v-2.814" transform="translate(-69.905 -168.054)" fill="#e50019"/>
        </g>
      </g>
    </g>
  </g>
</svg>
