<svg xmlns="http://www.w3.org/2000/svg" width="124.664" height="50.975" viewBox="0 0 124.664 50.975">
  <g id="Group_145" data-name="Group 145" transform="translate(-38.615 -22.198)">
    <g id="Layer_1" data-name="Layer 1" transform="translate(38.615 22.198)">
      <path id="Path_124" data-name="Path 124" d="M38.615,56.2V23.938h11.6V37.69l7.509-13.752h13.4l-9.936,15.89L72.515,56.2H58.2l-7.98-13.488V56.2Z" transform="translate(-38.615 -23.211)" fill="#1a1818"/>
      <g id="Group_143" data-name="Group 143" transform="translate(37.906 0.696)">
        <path id="Path_125" data-name="Path 125" d="M144,56.192H129.314V23.863H144Zm-12.948-1.735h11.214V25.6H131.049Z" transform="translate(-129.314 -23.863)" fill="#1a1818"/>
      </g>
      <path id="Path_126" data-name="Path 126" d="M179.51,52.436l3.777-9.037a24.543,24.543,0,0,0,4.53,2.546,9.955,9.955,0,0,0,3.72.8,3.485,3.485,0,0,0,1.911-.452,1.392,1.392,0,0,0,.7-1.223q0-1.344-3.484-2.05-1.125-.243-1.753-.375a10.44,10.44,0,0,1-5.642-3.129,8.223,8.223,0,0,1-1.956-5.6,10.633,10.633,0,0,1,3.8-8.463,14.755,14.755,0,0,1,9.959-3.262,21.667,21.667,0,0,1,5.575.727,26.163,26.163,0,0,1,5.53,2.2l-3.6,8.441a14.833,14.833,0,0,0-3.428-1.884,9.415,9.415,0,0,0-3.338-.65,3.714,3.714,0,0,0-1.911.408,1.265,1.265,0,0,0-.675,1.135q0,1.367,4.923,2.4.787.176,1.214.264a9.421,9.421,0,0,1,5.35,3.063,8.384,8.384,0,0,1,1.956,5.6,11.011,11.011,0,0,1-3.945,8.75,15.18,15.18,0,0,1-10.262,3.394,24.009,24.009,0,0,1-6.474-.9A29.654,29.654,0,0,1,179.51,52.436Z" transform="translate(-120.626 -22.198)" fill="#1a1818"/>
      <rect id="Rectangle_145" data-name="Rectangle 145" width="6.205" height="3.227" transform="translate(28.566 17.384)" fill="#e50019"/>
      <rect id="Rectangle_146" data-name="Rectangle 146" width="4.326" height="17.052" transform="matrix(0.762, -0.647, 0.647, 0.762, 44.121, 12.029)" fill="#e50019"/>
      <rect id="Rectangle_147" data-name="Rectangle 147" width="6.205" height="3.227" transform="translate(87.494 17.384)" fill="#e50019"/>
      <path id="Path_127" data-name="Path 127" d="M291.879,22.233H259.55v9.862h8.9V55.766h14.683V32.095h8.747Z" transform="translate(-167.214 -22.218)" fill="#1a1818"/>
    </g>
    <g id="GUIDES" transform="translate(42.248 60.622)">
      <g id="Group_144" data-name="Group 144" transform="translate(28.807)">
        <path id="Path_128" data-name="Path 128" d="M120.517,114.783v9.364h5.148v2.647h-9.429V114.783Z" transform="translate(-116.236 -114.513)" fill="#e50019"/>
        <path id="Path_129" data-name="Path 129" d="M158.662,124.906a12.774,12.774,0,0,1-13.017,0,5.184,5.184,0,0,1,0-8.986,12.772,12.772,0,0,1,13.017,0,5.183,5.183,0,0,1,0,8.986Zm-9.849-6.789a2.9,2.9,0,0,0-1.312,2.359,2.77,2.77,0,0,0,1.312,2.233,5.72,5.72,0,0,0,3.341.954,5.525,5.525,0,0,0,3.316-.936,2.96,2.96,0,0,0,1.337-2.3,2.9,2.9,0,0,0-1.337-2.3,6.068,6.068,0,0,0-3.316-.955A5.836,5.836,0,0,0,148.812,118.117Z" transform="translate(-131.841 -114.137)" fill="#e50019"/>
        <path id="Path_130" data-name="Path 130" d="M204.994,126.2a13.531,13.531,0,0,1-3.712.594,10.97,10.97,0,0,1-6.386-1.8,5.591,5.591,0,0,1-2.5-4.376,5.705,5.705,0,0,1,2.5-4.43,10.61,10.61,0,0,1,6.237-1.873,13.615,13.615,0,0,1,3.86.612v3.727a5.482,5.482,0,0,0-3.737-1.314,5.177,5.177,0,0,0-2.97.792,2.99,2.99,0,0,0-1.435,2.467,2.941,2.941,0,0,0,1.337,2.341,5.7,5.7,0,0,0,3.068.828,5.848,5.848,0,0,0,3.737-1.26Z" transform="translate(-160.568 -114.238)" fill="#e50019"/>
        <path id="Path_131" data-name="Path 131" d="M233.263,119.735l5.246-4.952h5.3l-6.558,5.691,7.152,6.321h-5.543l-5.593-5.2v5.2h-4.282V114.783h4.282Z" transform="translate(-181.861 -114.513)" fill="#e50019"/>
      </g>
      <rect id="Rectangle_148" data-name="Rectangle 148" width="21.701" height="3.227" transform="translate(0 5.281)" fill="#e50019"/>
      <rect id="Rectangle_149" data-name="Rectangle 149" width="21.701" height="3.227" transform="translate(95.811 5.281)" fill="#e50019"/>
    </g>
  </g>
</svg>
