<svg xmlns="http://www.w3.org/2000/svg" width="191.468" height="78.291" viewBox="0 0 191.468 78.291">
  <g id="Group_129" data-name="Group 129" transform="translate(-38.615 -22.198)">
    <g id="Layer_1" data-name="Layer 1" transform="translate(38.615 22.198)">
      <path id="Path_116" data-name="Path 116" d="M38.615,73.493V23.938H56.431V45.06L67.963,23.938H88.54L73.28,48.343l17.4,25.15H68.687L56.431,52.778V73.493Z" transform="translate(-38.615 -22.821)" fill="#fff"/>
      <g id="Group_129-2" data-name="Group 129" transform="translate(58.218 1.069)">
        <path id="Path_117" data-name="Path 117" d="M151.865,73.515H129.314V23.863h22.551Zm-19.887-2.664H149.2V26.527H131.978Z" transform="translate(-129.314 -23.863)" fill="#fff"/>
      </g>
      <path id="Path_118" data-name="Path 118" d="M179.51,68.64l5.8-13.879a37.694,37.694,0,0,0,6.957,3.91,15.288,15.288,0,0,0,5.714,1.236,5.352,5.352,0,0,0,2.935-.694,2.138,2.138,0,0,0,1.07-1.879q0-2.064-5.351-3.148-1.727-.373-2.693-.576a16.034,16.034,0,0,1-8.666-4.806,12.63,12.63,0,0,1-3-8.6,16.33,16.33,0,0,1,5.835-13q5.835-5.009,15.3-5.009a33.277,33.277,0,0,1,8.563,1.117,40.183,40.183,0,0,1,8.493,3.385l-5.525,12.965a22.782,22.782,0,0,0-5.265-2.894,14.46,14.46,0,0,0-5.127-1,5.7,5.7,0,0,0-2.935.626,1.943,1.943,0,0,0-1.036,1.743q0,2.1,7.561,3.69,1.208.271,1.865.406a14.469,14.469,0,0,1,8.217,4.705,12.876,12.876,0,0,1,3,8.6,16.911,16.911,0,0,1-6.059,13.439Q209.1,74.191,199.4,74.191a36.875,36.875,0,0,1-9.943-1.388A45.546,45.546,0,0,1,179.51,68.64Z" transform="translate(-89.072 -22.198)" fill="#fff"/>
      <rect id="Rectangle_126" data-name="Rectangle 126" width="9.53" height="4.956" transform="translate(43.873 26.699)" fill="#e50019"/>
      <rect id="Rectangle_127" data-name="Rectangle 127" width="6.644" height="26.19" transform="matrix(0.762, -0.647, 0.647, 0.762, 67.763, 18.475)" fill="#e50019"/>
      <rect id="Rectangle_128" data-name="Rectangle 128" width="9.53" height="4.956" transform="translate(134.379 26.699)" fill="#e50019"/>
      <path id="Path_119" data-name="Path 119" d="M309.2,22.233H259.55V37.38h13.667V73.736h22.551V37.38H309.2Z" transform="translate(-117.735 -22.211)" fill="#fff"/>
    </g>
    <g id="GUIDES" transform="translate(44.195 81.212)">
      <g id="Group_130" data-name="Group 130" transform="translate(44.244)">
        <path id="Path_120" data-name="Path 120" d="M122.811,114.783v14.382h7.906v4.066H116.236V114.783Z" transform="translate(-116.236 -114.368)" fill="#e50019"/>
        <path id="Path_121" data-name="Path 121" d="M167.029,130.676a19.62,19.62,0,0,1-19.993,0,7.962,7.962,0,0,1,0-13.8,19.616,19.616,0,0,1,19.993,0,7.96,7.96,0,0,1,0,13.8ZM151.9,120.25a4.458,4.458,0,0,0-2.015,3.623,4.255,4.255,0,0,0,2.015,3.43,8.785,8.785,0,0,0,5.131,1.465,8.485,8.485,0,0,0,5.093-1.438,4.546,4.546,0,0,0,2.053-3.54,4.46,4.46,0,0,0-2.053-3.54,9.32,9.32,0,0,0-5.093-1.466A8.963,8.963,0,0,0,151.9,120.25Z" transform="translate(-125.837 -114.137)" fill="#e50019"/>
        <path id="Path_122" data-name="Path 122" d="M211.744,132.564a20.783,20.783,0,0,1-5.7.912,16.848,16.848,0,0,1-9.807-2.765,8.588,8.588,0,0,1-3.839-6.721,8.762,8.762,0,0,1,3.839-6.8,16.3,16.3,0,0,1,9.579-2.876,20.911,20.911,0,0,1,5.929.94v5.724a8.42,8.42,0,0,0-5.739-2.018,7.951,7.951,0,0,0-4.561,1.216,4.592,4.592,0,0,0-2.2,3.789,4.518,4.518,0,0,0,2.053,3.6,8.755,8.755,0,0,0,4.713,1.272,8.982,8.982,0,0,0,5.739-1.936Z" transform="translate(-143.511 -114.199)" fill="#e50019"/>
        <path id="Path_123" data-name="Path 123" d="M235.557,122.389l8.058-7.606h8.134l-10.072,8.74,10.985,9.708h-8.514l-8.59-7.993v7.993h-6.576V114.783h6.576Z" transform="translate(-156.612 -114.368)" fill="#e50019"/>
      </g>
      <rect id="Rectangle_129" data-name="Rectangle 129" width="33.329" height="4.956" transform="translate(0 8.112)" fill="#e50019"/>
      <rect id="Rectangle_130" data-name="Rectangle 130" width="33.329" height="4.956" transform="translate(147.152 8.112)" fill="#e50019"/>
    </g>
  </g>
</svg>
