<svg xmlns="http://www.w3.org/2000/svg" width="108.441" height="77.126" viewBox="0 0 108.441 77.126">
  <g id="Group_8" data-name="Group 8" transform="translate(175.055 492.102) rotate(180)">
    <path id="Path_12" data-name="Path 12" d="M116.381,440.69a48.018,48.018,0,0,1-9.744,29.022,83.686,83.686,0,0,1-25.09,22.39l-7.466-6.631a41.945,41.945,0,0,0,7.668-9.542,25.463,25.463,0,0,0,3.94-11.2,24.941,24.941,0,0,1-13.684-8.706,23.607,23.607,0,0,1-5.391-15.338,25.41,25.41,0,0,1,7.264-18.045,24.084,24.084,0,0,1,35.247,0A25.475,25.475,0,0,1,116.381,440.69Zm58.674,0a48.017,48.017,0,0,1-9.744,29.022,83.7,83.7,0,0,1-25.09,22.39l-8.293-6.631a41.964,41.964,0,0,0,7.668-9.542,30.8,30.8,0,0,0,4.353-11.2,24.941,24.941,0,0,1-13.684-8.706,23.607,23.607,0,0,1-5.391-15.338,25.41,25.41,0,0,1,7.264-18.045,23.344,23.344,0,0,1,17.624-7.669,24.027,24.027,0,0,1,17.826,7.669A25.052,25.052,0,0,1,175.055,440.69Z" fill="#e50019"/>
  </g>
</svg>
